<svg width="26" height="26" viewBox="0 0 26 26" fill="none" xmlns="http://www.w3.org/2000/svg">
<rect x="0.5" y="0.5" width="24.625" height="24.625" rx="12.3125" stroke="white"/>
<path d="M17.9375 13.2894V16.8229H15.8691V13.5048C15.8691 12.6861 15.5675 12.1259 14.8349 12.1259C14.2747 12.1259 13.93 12.5137 13.8007 12.8585C13.7576 12.9877 13.7145 13.1601 13.7145 13.3756V16.8229H11.6462C11.6462 16.8229 11.6893 11.221 11.6462 10.6608H13.7145V11.5226C13.9731 11.0917 14.4902 10.4884 15.5675 10.4884C16.9033 10.4884 17.9375 11.3934 17.9375 13.2894ZM9.49159 7.6875C8.80213 7.6875 8.32812 8.16151 8.32812 8.76478C8.32812 9.36806 8.75904 9.84207 9.4485 9.84207C10.1811 9.84207 10.612 9.36806 10.612 8.76478C10.6551 8.11841 10.2241 7.6875 9.49159 7.6875ZM8.4574 16.8229H10.5258V10.6608H8.4574V16.8229Z" fill="white"/>
</svg>
