<svg width="26" height="26" viewBox="0 0 26 26" fill="none" xmlns="http://www.w3.org/2000/svg">
<rect x="0.5" y="0.5" width="24.625" height="24.625" rx="12.3125" stroke="white"/>
<path d="M12.8125 7.56401C14.5105 7.56401 14.7421 7.56401 15.4367 7.56401C16.0542 7.56401 16.363 7.71837 16.5945 7.79556C16.9032 7.94993 17.1348 8.02711 17.3663 8.25866C17.5979 8.49021 17.7523 8.72176 17.8294 9.0305C17.9066 9.26205 17.9838 9.57078 18.061 10.1883C18.061 10.8829 18.061 11.0373 18.061 12.8125C18.061 14.5877 18.061 14.7421 18.061 15.4367C18.061 16.0542 17.9066 16.363 17.8294 16.5945C17.6751 16.9032 17.5979 17.1348 17.3663 17.3663C17.1348 17.5979 16.9032 17.7523 16.5945 17.8294C16.363 17.9066 16.0542 17.9838 15.4367 18.061C14.7421 18.061 14.5877 18.061 12.8125 18.061C11.0373 18.061 10.8829 18.061 10.1883 18.061C9.57078 18.061 9.26205 17.9066 9.0305 17.8294C8.72176 17.6751 8.49021 17.5979 8.25866 17.3663C8.02711 17.1348 7.87274 16.9032 7.79556 16.5945C7.71837 16.363 7.64119 16.0542 7.56401 15.4367C7.56401 14.7421 7.56401 14.5877 7.56401 12.8125C7.56401 11.0373 7.56401 10.8829 7.56401 10.1883C7.56401 9.57078 7.71837 9.26205 7.79556 9.0305C7.94993 8.72176 8.02711 8.49021 8.25866 8.25866C8.49021 8.02711 8.72176 7.87274 9.0305 7.79556C9.26205 7.71837 9.57078 7.64119 10.1883 7.56401C10.8829 7.56401 11.1145 7.56401 12.8125 7.56401ZM12.8125 6.40625C11.0373 6.40625 10.8829 6.40625 10.1883 6.40625C9.4936 6.40625 9.0305 6.56062 8.64458 6.71499C8.25866 6.86935 7.87274 7.1009 7.48682 7.48682C7.1009 7.87274 6.94654 8.18148 6.71499 8.64458C6.56062 9.0305 6.48343 9.4936 6.40625 10.1883C6.40625 10.8829 6.40625 11.1145 6.40625 12.8125C6.40625 14.5877 6.40625 14.7421 6.40625 15.4367C6.40625 16.1314 6.56062 16.5945 6.71499 16.9804C6.86935 17.3663 7.1009 17.7523 7.48682 18.1382C7.87274 18.5241 8.18148 18.6785 8.64458 18.91C9.0305 19.0644 9.4936 19.1416 10.1883 19.2187C10.8829 19.2187 11.1145 19.2187 12.8125 19.2187C14.5105 19.2187 14.7421 19.2187 15.4367 19.2187C16.1314 19.2187 16.5945 19.0644 16.9804 18.91C17.3663 18.7556 17.7523 18.5241 18.1382 18.1382C18.5241 17.7523 18.6785 17.4435 18.91 16.9804C19.0644 16.5945 19.1416 16.1314 19.2187 15.4367C19.2187 14.7421 19.2187 14.5105 19.2187 12.8125C19.2187 11.1145 19.2187 10.8829 19.2187 10.1883C19.2187 9.4936 19.0644 9.0305 18.91 8.64458C18.7556 8.25866 18.5241 7.87274 18.1382 7.48682C17.7523 7.1009 17.4435 6.94654 16.9804 6.71499C16.5945 6.56062 16.1314 6.48343 15.4367 6.40625C14.7421 6.40625 14.5877 6.40625 12.8125 6.40625Z" fill="white"/>
<path d="M12.8125 9.4936C10.9601 9.4936 9.4936 10.9601 9.4936 12.8125C9.4936 14.6649 10.9601 16.1314 12.8125 16.1314C14.6649 16.1314 16.1314 14.6649 16.1314 12.8125C16.1314 10.9601 14.6649 9.4936 12.8125 9.4936ZM12.8125 14.9736C11.6547 14.9736 10.6514 14.0474 10.6514 12.8125C10.6514 11.6547 11.5776 10.6514 12.8125 10.6514C13.9703 10.6514 14.9736 11.5776 14.9736 12.8125C14.9736 13.9703 13.9703 14.9736 12.8125 14.9736Z" fill="white"/>
<path d="M16.2086 10.1883C16.6349 10.1883 16.9804 9.84269 16.9804 9.41642C16.9804 8.99014 16.6349 8.64458 16.2086 8.64458C15.7823 8.64458 15.4367 8.99014 15.4367 9.41642C15.4367 9.84269 15.7823 10.1883 16.2086 10.1883Z" fill="white"/>
</svg>
