<svg width="26" height="26" viewBox="0 0 26 26" fill="none" xmlns="http://www.w3.org/2000/svg">
<g clip-path="url(#clip0_79_175)">
<rect x="0.5" y="0.5" width="24.625" height="24.625" rx="12.3125" stroke="white"/>
<path d="M19.2035 9.1312C18.3109 9.13117 17.4549 8.77658 16.8238 8.14541C16.1926 7.51424 15.8381 6.65821 15.8381 5.76562H13.4336V15.1811C13.4331 15.6104 13.2976 16.0287 13.0462 16.3766C12.7947 16.7245 12.4402 16.9845 12.0327 17.1197C11.6253 17.2549 11.1857 17.2584 10.7761 17.1297C10.3666 17.0011 10.0079 16.7468 9.75095 16.4029C9.494 16.059 9.3518 15.643 9.3445 15.2138C9.33721 14.7846 9.46518 14.3639 9.71029 14.0115C9.9554 13.6591 10.3052 13.3928 10.7101 13.2503C11.1151 13.1078 11.5546 13.0963 11.9664 13.2176V10.8802C11.0912 10.7622 10.2009 10.914 9.41432 11.3153C8.62772 11.7166 7.98226 12.3483 7.56414 13.1261C7.14603 13.9039 6.97515 14.7908 7.07434 15.6683C7.17352 16.5458 7.53804 17.3721 8.11923 18.0369C8.70041 18.7018 9.47059 19.1735 10.3269 19.3891C11.1833 19.6047 12.085 19.554 12.9117 19.2436C13.7385 18.9332 14.4508 18.378 14.9537 17.6521C15.4566 16.9262 15.726 16.0642 15.7261 15.1811L15.7962 10.4219C16.7842 11.1471 17.9782 11.5374 19.2037 11.5355L19.2035 9.1312Z" fill="white"/>
</g>
<defs>
<clipPath id="clip0_79_175">
<rect width="25.625" height="25.625" fill="white"/>
</clipPath>
</defs>
</svg>
